# File created by Blade
# Date/Time:  Mon Nov 18 17:26:10 2013
# Frame Rate: 100.000 fps
#------------------------------------------------------
:FULLY-SPECIFIED
:DEGREES
263
root -39.595276 -2.902727 38.596895 10.365482 -1.608999 14.794925
Spine 22.248635 -2.057391 1.272475
Spine1 8.039229 -0.622874 2.924459
Spine2 -22.485978 -1.929559 -1.026398
NeckDummy -0.109811 0.275112 0.941983 13.644788 -0.131057 -0.808376
Neck 2.112420 -15.433616 40.415706
Head -0.454767 -0.058562 0.265370 -4.867935 -5.255609 -2.265494
LeftShoulderDummy -0.159521 0.277362 0.955654 13.640910 -0.312148 -0.585649
LeftShoulder 5.641876 -8.291874 15.717742
LeftArm 16.641575 37.671891 19.240979
LeftForeArm 46.717236
LeftForeArmRoll 23.440231
LeftHand -33.605740 -23.675994 12.903996
LeftHandThumb1 13.374318 4.658955
LeftHandIndex1 -0.109026 40.347808
LeftHandPinky1 1.605131 60.405462
RightShoulderDummy -0.102056 0.306100 0.920669 13.610411 0.123809 0.868124
RightShoulder 5.728480 5.068646 6.705821
RightArm 4.167542 63.855528 42.917273
RightForeArm 100.356874
RightForeArmRoll 21.667738
RightHand -45.499238 -24.193467 5.091781
RightHandThumb1 11.481717 3.978976
RightHandIndex1 7.264400 30.747073
RightHandPinky1 2.010120 54.233200
LeftUpLeg -10.625796 22.816744 -42.730727
LeftLeg 40.868891
LeftFoot -0.001212 -0.680817 -1.235248 -25.388246 22.059981 0.998408
LeftToeBase 0.858517
RightUpLeg 1.942700 18.039275 -37.169845
RightLeg 53.833346
RightFoot -0.569239 0.832310 0.886686 -22.409444 6.665716 -20.574528
RightToeBase -0.943798
264
root -39.663448 -2.896690 38.586548 10.311265 -1.526283 14.705690
Spine 22.261280 -1.972341 1.203272
Spine1 8.033525 -0.588713 2.799836
Spine2 -22.497692 -1.981479 -1.001623
NeckDummy -0.112752 0.277197 0.943576 13.650323 -0.159213 -0.685298
Neck 2.170419 -15.525122 40.406167
Head -0.453559 -0.062721 0.264368 -4.857414 -5.324576 -2.205358
LeftShoulderDummy -0.161978 0.282078 0.957622 13.645663 -0.337911 -0.462654
LeftShoulder 5.739463 -8.507798 15.783302
LeftArm 16.503350 37.849998 19.196759
LeftForeArm 46.502481
LeftForeArmRoll 23.267026
LeftHand -33.584722 -23.637269 13.020065
LeftHandThumb1 13.504127 4.286989
LeftHandIndex1 -0.100151 40.264945
LeftHandPinky1 1.596295 60.268914
RightShoulderDummy -0.104918 0.305740 0.921804 13.616273 0.151775 0.741348
RightShoulder 5.658297 5.246607 6.615749
RightArm 3.805706 63.721993 42.501122
RightForeArm 100.339326
RightForeArmRoll 21.435471
RightHand -45.559168 -24.864301 5.450190
RightHandThumb1 11.719788 4.140473
RightHandIndex1 7.120417 31.444618
RightHandPinky1 2.683552 55.279173
LeftUpLeg -10.745224 22.798570 -42.463953
LeftLeg 40.556966
LeftFoot -0.004997 -0.677217 -1.223350 -25.584093 22.319711 1.200200
LeftToeBase 0.844058
RightUpLeg 1.944769 18.041012 -37.247978
RightLeg 53.916965
RightFoot -0.567935 0.830715 0.889359 -22.373259 6.539775 -20.578524
RightToeBase -0.996429
265
root -39.728945 -2.891007 38.573970 10.284660 -1.450239 14.634196
Spine 22.247421 -1.885916 1.171047
Spine1 8.030628 -0.553318 2.765621
Spine2 -22.499794 -1.994290 -1.031705
NeckDummy -0.112483 0.278894 0.943765 13.650546 -0.136769 -0.805883
Neck 2.068963 -15.453006 40.427030
Head -0.463808 -0.065240 0.263224 -4.825865 -5.351601 -2.308805
LeftShoulderDummy -0.162693 0.281871 0.957721 13.646296 -0.321307 -0.571230
LeftShoulder 5.783438 -8.441518 15.791116
LeftArm 16.441505 38.100726 19.261909
LeftForeArm 46.260821
LeftForeArmRoll 23.146773
LeftHand -33.607839 -23.779810 13.079492
LeftHandThumb1 13.432210 4.642503
LeftHandIndex1 -0.104855 40.368751
LeftHandPinky1 1.753016 60.038985
RightShoulderDummy -0.104378 0.309803 0.922560 13.616268 0.128277 0.863608
RightShoulder 5.660193 5.121193 6.580778
RightArm 3.321188 63.477156 41.971371
RightForeArm 100.386529
RightForeArmRoll 21.292671
RightHand -45.706016 -25.447704 5.778691
RightHandThumb1 11.651974 4.290988
RightHandIndex1 6.889481 32.040460
RightHandPinky1 4.411949 56.922462
LeftUpLeg -10.862329 22.775632 -42.255678
LeftLeg 40.272090
LeftFoot -0.006225 -0.676547 -1.212800 -25.752978 22.553106 1.393451
LeftToeBase 0.816066
RightUpLeg 1.930272 18.034541 -37.344934
RightLeg 53.990221
RightFoot -0.557408 0.833261 0.901653 -22.179451 6.335924 -20.574052
RightToeBase -1.207173
266
root -39.792609 -2.887706 38.563996 10.231461 -1.401965 14.537573
Spine 22.246176 -1.819537 1.127972
Spine1 8.027979 -0.518174 2.697309
Spine2 -22.482773 -1.966515 -1.030630
NeckDummy -0.110908 0.280740 0.945009 13.599035 -0.130084 -0.792250
Neck 2.083328 -15.460524 40.445747
Head -0.466109 -0.068474 0.262411 -4.816180 -5.402439 -2.295924
LeftShoulderDummy -0.161265 0.283776 0.958924 13.594036 -0.312756 -0.573758
LeftShoulder 5.864385 -8.459923 15.867632
LeftArm 16.274014 38.374409 19.274131
LeftForeArm 46.052802
LeftForeArmRoll 23.076612
LeftHand -33.571849 -23.723512 13.217439
LeftHandThumb1 13.637214 4.387305
LeftHandIndex1 -0.256816 40.068348
LeftHandPinky1 1.394612 59.878949
RightShoulderDummy -0.102855 0.311748 0.923955 13.564271 0.121088 0.857932
RightShoulder 5.658228 5.150095 6.502263
RightArm 2.816787 63.268646 41.395791
RightForeArm 100.478743
RightForeArmRoll 21.199525
RightHand -45.904156 -26.140868 6.276375
RightHandThumb1 11.690715 4.512405
RightHandIndex1 6.611612 32.958816
RightHandPinky1 5.819458 58.849061
LeftUpLeg -10.977411 22.794392 -42.025331
LeftLeg 40.019090
LeftFoot -0.010285 -0.674318 -1.200068 -25.913292 22.784263 1.560143
LeftToeBase 0.805356
RightUpLeg 1.858613 17.967318 -37.405201
RightLeg 54.052467
RightFoot -0.544986 0.821188 0.908233 -22.193254 6.381474 -20.484939
RightToeBase -1.274334
